<?xml version="1.0" encoding="UTF-8" standalone="no"?>
<!-- Generator: Adobe Illustrator 21.0.2, SVG Export Plug-In . SVG Version: 6.00 Build 0)  -->

<svg
   xmlns:dc="http://purl.org/dc/elements/1.1/"
   xmlns:cc="http://creativecommons.org/ns#"
   xmlns:rdf="http://www.w3.org/1999/02/22-rdf-syntax-ns#"
   xmlns:svg="http://www.w3.org/2000/svg"
   xmlns="http://www.w3.org/2000/svg"
   xmlns:sodipodi="http://sodipodi.sourceforge.net/DTD/sodipodi-0.dtd"
   xmlns:inkscape="http://www.inkscape.org/namespaces/inkscape"
   version="1.1"
   x="0px"
   y="0px"
   viewBox="0 0 749.875 118.71729"
   xml:space="preserve"
   id="svg46"
   sodipodi:docname="brainslug.svg"
   width="749.875"
   height="118.71729"
   inkscape:version="0.92.4 5da689c313, 2019-01-14"><metadata
   id="metadata52"><rdf:RDF><cc:Work
       rdf:about=""><dc:format>image/svg+xml</dc:format><dc:type
         rdf:resource="http://purl.org/dc/dcmitype/StillImage" /></cc:Work></rdf:RDF></metadata><defs
   id="defs50" /><sodipodi:namedview
   pagecolor="#ffffff"
   bordercolor="#666666"
   borderopacity="1"
   objecttolerance="10"
   gridtolerance="10"
   guidetolerance="10"
   inkscape:pageopacity="0"
   inkscape:pageshadow="2"
   inkscape:window-width="1918"
   inkscape:window-height="1023"
   id="namedview48"
   showgrid="false"
   inkscape:zoom="0.236"
   inkscape:cx="383.97458"
   inkscape:cy="58.202392"
   inkscape:window-x="0"
   inkscape:window-y="36"
   inkscape:window-maximized="0"
   inkscape:current-layer="svg46" />
<style
   type="text/css"
   id="style2">
	.st0{fill:#969596;}
	.st1{fill:#ffeee6; stroke:#f79495;}
	.st2{fill:#aaf05d; opacity: 0.85;}
</style>
<g
   id="Layer_1"
   transform="translate(-124.5,-439.48511)">
	<g
   id="g22">
		<path
   class="st0"
   d="m 130.66388,446.08441 v 84.39276 h 91.15501 v -84.39276 z m 76.81909,57.74957 h -30.70061 v -2.9754 h 30.70061 z m 0,-28.40142 h -30.70061 v -2.97541 h 30.70061 z"
   id="path4"
   inkscape:connector-curvature="0"
   style="fill:#969596" />
		<polygon
   class="st0"
   points="229.0545,530.47717 275.30823,530.47717 275.30823,502.34631 299.44943,502.34631 299.44943,461.23184 275.30823,461.23184 229.0545,461.23184 "
   id="polygon6"
   style="fill:#969596" />
		<path
   class="st0"
   d="m 375.11914,461.23184 -6.42419,6.8299 -6.82993,-6.8299 h -55.1799 v 69.24533 h 55.1799 l 6.82993,-6.82983 6.42419,6.82983 h 18.12274 v -69.24533 z m -13.99805,42.60214 h -15.35034 v -2.9754 h 15.35034 z"
   id="path8"
   inkscape:connector-curvature="0"
   style="fill:#969596" />
		<path
   class="st0"
   d="m 446.73114,530.47717 h -46.25372 v -54.77411 h 46.25372 z m 0,-84.39273 h -46.25372 v 26.64322 h 46.25372 z"
   id="path10"
   inkscape:connector-curvature="0"
   style="fill:#969596" />
		<polygon
   class="st0"
   points="490.88858,530.47717 490.88858,506.43744 493.86383,506.43744 493.86383,530.47717 530.78571,530.47717 530.78571,461.23184 453.96674,461.23184 453.96674,530.47717 "
   id="polygon12"
   style="fill:#969596" />
		<polygon
   class="st0"
   points="746.36584,461.23184 746.36584,484.59543 743.39056,484.59543 743.39056,461.23184 706.46875,461.23184 706.46875,529.80096 783.28766,529.80096 783.28766,461.23184 "
   id="polygon14"
   style="fill:#969596" />
		<polygon
   class="st0"
   points="538.0213,446.08441 538.0213,500.85858 568.82324,500.85858 568.82324,503.83398 538.0213,503.83398 538.0213,530.47717 646.14954,530.47717 646.14954,475.97357 615.34741,475.97357 615.34741,472.99817 646.14954,472.99817 646.14954,446.08441 "
   id="polygon16"
   style="fill:#969596" />
		<rect
   x="653.38513"
   y="446.08444"
   class="st0"
   width="45.848"
   height="84.392761"
   id="rect18"
   style="fill:#969596" />
		<path
   class="st0"
   d="m 790.52325,461.23184 v 67.75766 h 46.11841 v 2.9754 h -46.11841 v 26.23749 H 874.375 v -96.97055 z m 46.11841,42.60214 h -15.35034 v -2.9754 h 15.35034 z"
   id="path20"
   inkscape:connector-curvature="0"
   style="fill:#969596" />
	</g>
</g>
<g
   id="Layer_2"
   transform="translate(-124.5,-439.48511)">
	<g
   id="g43">
		<path
   class="st1"
   d="m 125,439.98511 v 84.39276 h 91.155 v -84.39276 z m 76.81909,57.74954 h -30.70062 v -2.9754 h 30.70062 z m 0,-28.4014 h -30.70062 v -2.9754 h 30.70062 z"
   id="path25"
   inkscape:connector-curvature="0"
   style="fill:#ffeee6;stroke:#f79495" />
		<polygon
   class="st1"
   points="223.39062,524.37787 269.64435,524.37787 269.64435,496.24698 293.78555,496.24698 293.78555,455.13254 269.64435,455.13254 223.39062,455.13254 "
   id="polygon27"
   style="fill:#ffeee6;stroke:#f79495" />
		<path
   class="st1"
   d="m 369.45526,455.13254 -6.42419,6.82986 -6.82996,-6.82986 h -55.17987 v 69.24533 h 55.17987 l 6.82996,-6.82984 6.42419,6.82984 H 387.578 v -69.24533 z m -13.99805,42.60211 h -15.35037 v -2.9754 h 15.35037 z"
   id="path29"
   inkscape:connector-curvature="0"
   style="fill:#ffeee6;stroke:#f79495" />
		<path
   class="st1"
   d="m 441.06726,524.37787 h -46.25372 v -54.77414 h 46.25372 z m 0,-84.39276 h -46.25372 v 26.64325 h 46.25372 z"
   id="path31"
   inkscape:connector-curvature="0"
   style="fill:#ffeee6;stroke:#f79495" />
		<polygon
   class="st1"
   points="485.2247,524.37787 485.2247,500.3381 488.19995,500.3381 488.19995,524.37787 525.12177,524.37787 525.12177,455.13254 448.30286,455.13254 448.30286,524.37787 "
   id="polygon33"
   style="fill:#ffeee6;stroke:#f79495" />
		<polygon
   class="st2"
   points="740.70197,455.13254 740.70197,478.49609 737.72668,478.49609 737.72668,455.13254 700.80487,455.13254 700.80487,523.70166 777.62378,523.70166 777.62378,455.13254 "
   id="polygon35"
   style="opacity:0.85;fill:#aaf05d" />
		<polygon
   class="st2"
   points="532.35742,439.98511 532.35742,494.75925 563.15936,494.75925 563.15936,497.73465 532.35742,497.73465 532.35742,524.37787 640.48566,524.37787 640.48566,469.87424 609.68347,469.87424 609.68347,466.89883 640.48566,466.89883 640.48566,439.98511 "
   id="polygon37"
   style="opacity:0.85;fill:#aaf05d" />
		<rect
   x="647.72125"
   y="439.98511"
   class="st2"
   width="45.848"
   height="84.392761"
   id="rect39"
   style="opacity:0.85;fill:#aaf05d" />
		<path
   class="st2"
   d="m 784.85937,455.13254 v 67.75766 h 46.11841 v 2.9754 h -46.11841 v 26.23749 h 83.85175 v -96.97055 z m 46.11841,42.60211 h -15.35034 v -2.9754 h 15.35034 z"
   id="path41"
   inkscape:connector-curvature="0"
   style="opacity:0.85;fill:#aaf05d" />
	</g>
</g>
</svg>