<?xml version="1.0" encoding="utf-8"?>
<!-- Generator: Adobe Illustrator 21.0.2, SVG Export Plug-In . SVG Version: 6.00 Build 0)  -->
<svg version="1.1" xmlns="http://www.w3.org/2000/svg" xmlns:xlink="http://www.w3.org/1999/xlink" x="0px" y="0px"
	 viewBox="0 0 1000 1000" style="enable-background:new 0 0 1000 1000;" xml:space="preserve">
<style type="text/css">
	.st0{fill:#969596;}
	.st1{fill:#ffeee6; stroke:#f79495;}
	.st2{fill:#aaf05d; opacity: 0.85;}
</style>
<g id="Layer_1">
	<g>
		<path class="st0" d="M130.6638794,446.0844116v84.3927612h91.155014v-84.3927612H130.6638794z M207.4829712,503.8339844
			h-30.7006073v-2.9754028h30.7006073V503.8339844z M207.4829712,475.4325562h-30.7006073v-2.9754028h30.7006073V475.4325562z"/>
		<polygon class="st0" points="275.3082275,461.231842 229.0545044,461.231842 229.0545044,530.4771729 275.3082275,530.4771729 
			275.3082275,502.3463135 299.4494324,502.3463135 299.4494324,461.231842 		"/>
		<path class="st0" d="M375.1191406,461.231842l-6.4241943,6.829895l-6.8299255-6.829895h-55.1799011v69.2453308h55.1799011
			l6.8299255-6.829834l6.4241943,6.829834h18.1227417V461.231842H375.1191406z M361.1210938,503.8339844H345.770752v-2.9754028
			h15.3503418V503.8339844z"/>
		<path class="st0" d="M446.7311401,530.4771729H400.477417V475.703064h46.2537231V530.4771729z M446.7311401,446.0844421
			H400.477417v26.643219h46.2537231V446.0844421z"/>
		<polygon class="st0" points="453.9667358,461.231842 453.9667358,530.4771729 490.8885803,530.4771729 490.8885803,506.437439 
			493.8638306,506.437439 493.8638306,530.4771729 530.7857056,530.4771729 530.7857056,461.231842 		"/>
		<polygon class="st0" points="783.2876587,529.8009644 783.2876587,461.231842 746.3658447,461.231842 746.3658447,484.5954285 
			743.390564,484.5954285 743.390564,461.231842 706.46875,461.231842 706.46875,529.8009644 		"/>
		<polygon class="st0" points="646.1495361,472.9981689 646.1495361,446.0844116 538.0213013,446.0844116 538.0213013,500.8585815 
			568.8232422,500.8585815 568.8232422,503.8339844 538.0213013,503.8339844 538.0213013,530.4771729 646.1495361,530.4771729 
			646.1495361,475.9735718 615.3474121,475.9735718 615.3474121,472.9981689 		"/>
		<rect x="653.3851318" y="446.0844421" class="st0" width="45.8479996" height="84.3927612"/>
		<path class="st0" d="M790.5232544,461.231842v67.7576599h46.1184082v2.9754028h-46.1184082v26.2374878H874.375V461.231842
			H790.5232544z M836.6416626,503.8339844h-15.3503418v-2.9754028h15.3503418V503.8339844z"/>
	</g>
</g>
<g id="Layer_2">
	<g>
		<path class="st1" d="M125,439.9851074v84.3927612h91.1549988v-84.3927612H125z M201.8190918,497.7346497h-30.7006226v-2.9754028
			h30.7006226V497.7346497z M201.8190918,469.333252h-30.7006226v-2.9754028h30.7006226V469.333252z"/>
		<polygon class="st1" points="269.6443481,455.1325378 223.390625,455.1325378 223.390625,524.3778687 269.6443481,524.3778687 
			269.6443481,496.2469788 293.785553,496.2469788 293.785553,455.1325378 		"/>
		<path class="st1" d="M369.4552612,455.1325378l-6.4241943,6.8298645l-6.8299561-6.8298645h-55.1798706v69.2453308h55.1798706
			l6.8299561-6.829834l6.4241943,6.829834h18.1227417v-69.2453308H369.4552612z M355.4572144,497.7346497H340.106842v-2.9754028
			h15.3503723V497.7346497z"/>
		<path class="st1" d="M441.0672607,524.3778687h-46.2537231v-54.7741394h46.2537231V524.3778687z M441.0672607,439.9851074
			h-46.2537231v26.6432495h46.2537231V439.9851074z"/>
		<polygon class="st1" points="448.3028564,455.1325378 448.3028564,524.3778687 485.2247009,524.3778687 485.2247009,500.3381042 
			488.1999512,500.3381042 488.1999512,524.3778687 525.1217651,524.3778687 525.1217651,455.1325378 		"/>
		<polygon class="st2" points="777.6237793,523.7016602 777.6237793,455.1325378 740.7019653,455.1325378 740.7019653,478.4960938 
			737.7266846,478.4960938 737.7266846,455.1325378 700.8048706,455.1325378 700.8048706,523.7016602 		"/>
		<polygon class="st2" points="640.4856567,466.8988342 640.4856567,439.9851074 532.3574219,439.9851074 532.3574219,494.7592468 
			563.1593628,494.7592468 563.1593628,497.7346497 532.3574219,497.7346497 532.3574219,524.3778687 640.4856567,524.3778687 
			640.4856567,469.8742371 609.6834717,469.8742371 609.6834717,466.8988342 		"/>
		<rect x="647.7212524" y="439.9851074" class="st2" width="45.8479996" height="84.3927612"/>
		<path class="st2" d="M784.859375,455.1325378v67.7576599h46.1184082v2.9754028H784.859375v26.2374878h83.8517456v-96.9705505
			H784.859375z M830.9777832,497.7346497h-15.3503418v-2.9754028h15.3503418V497.7346497z"/>
	</g>
</g>
</svg>
